# xmcd CD database file
#
# Track frame offsets:
#	150
#	13720
#	23968
#	35879
#	48722
#	58728
#	84070
#	97427
#	106210
#	125676
#	136802
#	148635
#	162101
#	171515
#	186667
#	196183
#	205285
#	216053
#	226289
#	236076
#	247555
#	259698
#
# Disc length: 3615 seconds
#
# Revision: 2
# Processed by: cddbd v1.5.2PL0 Copyright (c) Steve Scherf et al.
# Submitted via: CDex 1.77
#
DISCID=410e1d16
DTITLE=jim reeves - Vol.2 - Six Classic Albums - CD 2
DYEAR=2014
DGENRE=Country
TTITLE0=trouble in the amen corner
TTITLE1=i'm waiting for the ship that never come in
TTITLE2=annabel lee
TTITLE3=the gun
TTITLE4=the farmer and the lord
TTITLE5=shifting whispering sands
TTITLE6=old tige
TTITLE7=why do i love you (melody of love)
TTITLE8=(far away feelin') the spell of the yukon
TTITLE9=men with broken hearts
TTITLE10=too many parties, too many pals
TTITLE11=seven days
TTITLE12=a railroad bum
TTITLE13=blue side of lonesome
TTITLE14=waiting for a train
TTITLE15=i won't forget you
TTITLE16=my lips are sealed
TTITLE17=most of the time
TTITLE18=when two worlds collide
TTITLE19=yonder comes a sucker
TTITLE20=a fallen star
TTITLE21=highway to nowhere
EXTD=YEAR: 2014
EXTT0=
EXTT1=
EXTT2=
EXTT3=
EXTT4=
EXTT5=
EXTT6=
EXTT7=
EXTT8=
EXTT9=
EXTT10=
EXTT11=
EXTT12=
EXTT13=
EXTT14=
EXTT15=
EXTT16=
EXTT17=
EXTT18=
EXTT19=
EXTT20=
EXTT21=
PLAYORDER=
